inDegrees=no
num_controls=7
num_derivatives=13
num_iterations=105
num_multipliers=7
num_parameters=0
num_slacks=7
num_states=26
objective=0.453844
objective_accelerations=0.047637
objective_balance=0.001019
objective_effort=0.036914
objective_height=0.362648
objective_ligament=0.005627
solver_duration=1202.823013
status=Solve_Succeeded
success=true
DataType=double
version=3
OpenSimVersion=4.5
endheader
time	/jointset/ground_pelvis/pelvis_tilt/value	/jointset/ground_pelvis/pelvis_tx/value	/jointset/ground_pelvis/pelvis_ty/value	/jointset/hip_r/hip_flexion_r/value	/jointset/hip_r/hip_adduction_r/value	/jointset/hip_r/hip_rotation_r/value	/jointset/back/lumbar_extension/value	/jointset/patellofemoral_r/patellar_flexion_r/value	/jointset/knee_r/knee_flexion_r/value	/jointset/knee_r/knee_adduction_r/value	/jointset/knee_r/knee_rotation_r/value	/jointset/ankle_r/ankle_angle_r/value	/jointset/subtalar_r/subtalar_angle_r/value	/jointset/ground_pelvis/pelvis_tilt/speed	/jointset/ground_pelvis/pelvis_tx/speed	/jointset/ground_pelvis/pelvis_ty/speed	/jointset/hip_r/hip_flexion_r/speed	/jointset/hip_r/hip_adduction_r/speed	/jointset/hip_r/hip_rotation_r/speed	/jointset/back/lumbar_extension/speed	/jointset/patellofemoral_r/patellar_flexion_r/speed	/jointset/knee_r/knee_flexion_r/speed	/jointset/knee_r/knee_adduction_r/speed	/jointset/knee_r/knee_rotation_r/speed	/jointset/ankle_r/ankle_angle_r/speed	/jointset/subtalar_r/subtalar_angle_r/speed	/forceset/tau_hip_flexion_r	/forceset/tau_hip_adduction_r	/forceset/tau_hip_rotation_r	/forceset/tau_knee_flexion_r	/forceset/tau_ankle_angle_r	/forceset/tau_subtalar_angle_r	/forceset/tau_lumbar_extension	lambda_cid13_p0	lambda_cid14_p0	lambda_cid14_p1	lambda_cid14_p2	lambda_cid14_p3	lambda_cid14_p4	lambda_cid14_p5	/jointset/ground_pelvis/pelvis_tilt/accel	/jointset/ground_pelvis/pelvis_tx/accel	/jointset/ground_pelvis/pelvis_ty/accel	/jointset/hip_r/hip_flexion_r/accel	/jointset/hip_r/hip_adduction_r/accel	/jointset/hip_r/hip_rotation_r/accel	/jointset/back/lumbar_extension/accel	/jointset/patellofemoral_r/patellar_flexion_r/accel	/jointset/knee_r/knee_flexion_r/accel	/jointset/knee_r/knee_adduction_r/accel	/jointset/knee_r/knee_rotation_r/accel	/jointset/ankle_r/ankle_angle_r/accel	/jointset/subtalar_r/subtalar_angle_r/accel	gamma_cid13_p0	gamma_cid14_p0	gamma_cid14_p1	gamma_cid14_p2	gamma_cid14_p3	gamma_cid14_p4	gamma_cid14_p5
0.5	-0.1278034644306434	0.02501454679213011	0.8085459460859579	0.879385711535019	-0.2181836852625538	-0.1375358097752226	-0.6464478500877512	0.9508295329239992	0.9508295329241864	-0.06797040692825723	0.1745283682335287	0.294594942749716	0.1461405678394544	-0.3449614747049385	-0.2021609967080004	-0.4956323637090017	1.835550889098567	-0.03483827977936516	0.1863628663828995	-0.7375812609701125	1.921159109480355	1.921159109480227	-0.4168515406909727	-0.0002724060487936887	0.5308156104433285	0.1613728920723144	-0.1912159099783177	0.01327342748207723	0.01687498441607126	-0.2935393695714045	0.00854264126814242	-0.002228147224803751	0.2367211872716361	-8.793039356590524	-40.09670221694062	-7.523595941362354	1.090566506762048	-3.897807269266069	-641.5977742292014	59.11450435752733	0.3269147791640022	0.5828259985640091	-0.4113897675576155	-1.252388651486912	-0.1881877429179344	-0.5338571955408862	1.802766806162543	-1.346192174173633	-1.346192174173631	0.4480405372075631	-0.01539689353749642	-0.5744242238180232	-0.3604161072748954	-8.590341367994445e-08	1.028785206342489e-08	1.236186604408779e-06	-2.256449825492508e-07	-1.322851030845473e-07	-1.571352552914819e-07	8.743799145362206e-07
0.51	-0.1312360360135156	0.02302228405209455	0.8035702079221901	0.8976757754410799	-0.2185418186276646	-0.1357001111005397	-0.6537328805485325	0.9699708263777246	0.9699708263777792	-0.0721162161106324	0.1745264837988719	0.299873362220522	0.1477352185707874	-0.3414991081404199	-0.1962715899130464	-0.4994025082819007	1.822210369823525	-0.03678819753589697	0.1808570800828303	-0.7193389999807136	1.906843888681048	1.906843888681034	-0.4121983243453047	-0.000132122420276828	0.5247885998456199	0.1575074565959389	-0.1973254917673245	0.01411578559766867	0.01726146640593714	-0.2987777969422765	0.008100870594991158	-0.001898289361627351	0.2425329881802056	-7.833110677337545	-40.55714512158763	-7.651596921373483	1.328727052160618	-3.956238568752022	-646.5316607701683	59.44526450358705	0.3639713551617614	0.594948125445236	-0.3429364356746991	-1.412597185429548	-0.1982003392941171	-0.5469865904136361	1.847830426161977	-1.51252845749362	-1.512528457476424	0.4909860924188358	0.02473459363816035	-0.6288418256496876	-0.4067573887290977	-5.928523469997822e-08	9.913185906284678e-08	1.669337140318116e-06	4.986075872032707e-07	-2.220628103570226e-07	-1.136775569974656e-07	1.148803466012177e-06
0.52	-0.13463236917873	0.02108950540110533	0.7985601463859898	0.9158248914304057	-0.218919412479795	-0.1339170797374934	-0.6608329134632535	0.9889612993385187	0.988961299338446	-0.0762120883477159	0.1745252009210104	0.3050891111157704	0.1492897849231746	-0.3377137911732602	-0.1902641788987305	-0.5024970381955477	1.807361305751813	-0.03873037718336019	0.1758294040558118	-0.700581751757977	1.890995010894367	1.890995010894469	-0.4068641516327399	-0.0001520946880847879	0.5182814953318148	0.1533560162831543	-0.2034350735563386	0.0149581437132562	0.01764794839583699	-0.3040162243131454	0.007659099921839377	-0.001568431498457729	0.2483447890887686	-6.931275782452399	-41.01533097510136	-7.772465014449576	1.558055948901292	-4.042378908137978	-651.4478123431556	59.79931817999731	0.3915048596922558	0.6064268424363889	-0.2762668357071857	-1.554097610820924	-0.1866401211042196	-0.438235140930787	1.905764252830072	-1.652923571648221	-1.65292357164819	0.5842318105869062	-0.04744807280244451	-0.67044300703733	-0.4176170745567233	-5.316545462040356e-08	1.074366404228895e-07	1.649692681424938e-06	5.459385370907369e-07	-2.251960636846628e-07	-1.034502715118334e-07	1.157521272110634e-06
0.53	-0.1379892592603225	0.0192172813028195	0.7935225439045375	0.9338181523752798	-0.2193162639528098	-0.1321826815937056	-0.6677429309656374	1.007785665520575	1.007785665520486	-0.08025202324642897	0.1745233097721695	0.3102374265647498	0.1508015973725298	-0.3336103755076881	-0.1841711951346395	-0.5049074980423188	1.791050475275747	-0.04063028691822058	0.1710613747279016	-0.6813511072518749	1.873624139248026	1.873624139248068	-0.4010773130904087	-0.0002142220459052838	0.5113034775620777	0.1489711553718223	-0.2096014449584803	0.01608449453811499	0.01792077934751434	-0.3090120758407259	0.006668535217476266	-0.001372256472450646	0.2541239024911162	-6.088278786927236	-41.67241743479428	-7.987025939806655	1.80324399024811	-3.87580982415664	-656.4383838300232	59.94206771037084	0.4278530742224692	0.6121056185791456	-0.2060611669484771	-1.705619809651381	-0.1900527061718222	-0.4944805151048312	1.942310769559031	-1.8172719112473	-1.817271911256295	0.5829550062242608	0.01635358104643367	-0.7232454118877829	-0.4538939018230578	-4.561517524126907e-08	1.149287281699077e-07	1.606401228420164e-06	5.815974392956078e-07	-2.257215205663342e-07	-9.377518062407708e-08	1.156429499694639e-06
0.54	-0.1413034965544133	0.0174062613372113	0.7884643117030602	0.9516410962066614	-0.2197317917844714	-0.130495642480476	-0.674458522778949	1.026428702396144	1.026428702396042	-0.08423268073368445	0.1745211870794097	0.3153136089860431	0.1522685665522913	-0.329183233672803	-0.1780233523632047	-0.5066229822005469	1.773297883053606	-0.04246564891287359	0.1663575979446421	-0.6616966139434218	1.854729149596875	1.854729149596856	-0.3950086693413547	-0.0001984034709947156	0.5038548897945047	0.144387362364425	-0.21576781636063	0.01721084536296631	0.01819361029924187	-0.3140079273683009	0.005677970513111865	-0.001176081446456867	0.2599030158934568	-5.304349713020605	-42.32793399357361	-8.195488090444547	2.040808539817387	-3.734968142286104	-661.4190382686177	60.10338519906105	0.4562500935548562	0.6173986439051053	-0.1372716979985304	-1.84244996003586	-0.1737305730627411	-0.425384632000647	1.990534013300227	-1.957747172610394	-1.957747172610401	0.6405928519314802	-0.03185888625622946	-0.7645570066045621	-0.4574034937697799	-3.648221578602583e-08	1.215216655365585e-07	1.536947143632347e-06	6.043425866176073e-07	-2.233617558482102e-07	-8.471102844035355e-08	1.144484576581803e-06
0.55	-0.1445719498959252	0.01565694372956758	0.783392407996496	0.969279502945026	-0.2201652979119338	-0.1288550140418352	-0.6809755582747116	1.044875363445134	1.044875363444896	-0.08815116456003602	0.1745193490505126	0.3203130590410631	0.1536887999456275	-0.324458454986679	-0.1718352313028773	-0.5076396233550172	1.754151803495285	-0.04422372931260626	0.1618029203459267	-0.6416567769916985	1.834363064772027	1.834363064772022	-0.3886257402012783	-0.0001690177474898585	0.4959656770324393	0.1396292118851322	-0.2216822910708643	0.0181399370571906	0.01842797307319076	-0.3192385840779607	0.004860343050254924	-0.0009693639345161672	0.2654432068511478	-4.57931169392438	-42.92842809989905	-8.384731218692858	2.269589305120409	-3.58824300289897	-666.3968438917976	60.33975769665787	0.4879557436509707	0.6202151015526526	-0.06615591397314202	-1.985417417180511	-0.1749102125960094	-0.4653332380577322	2.018764768731244	-2.112032151652573	-2.112032151650534	0.6466878931233792	0.02053607126410555	-0.8115597212372276	-0.4892289122708865	-2.837254929376386e-08	1.273009156298028e-07	1.470245399722972e-06	6.226449108744388e-07	-2.210620251227961e-07	-7.525214540244564e-08	1.131481016906799e-06
0.5600000000000001	-0.1477916826530742	0.01396964658541835	0.7783138787604268	0.9867195027951157	-0.220615997531226	-0.1272588971620362	-0.6872905841544326	1.063111165043028	1.063111165042659	-0.09200391010537061	0.1745178446327677	0.3252315257064171	0.1550606102167183	-0.3194391168001613	-0.1656192596643084	-0.5079480881015643	1.733616505398951	-0.04590434727903326	0.1574552861771803	-0.6212946907350593	1.812557259377953	1.812557259377962	-0.381861013138094	-0.0001316812395745257	0.4876582118611853	0.1347027379153648	-0.2275967657811075	0.01906902875139994	0.01866233584718683	-0.3244692407876144	0.004042715587395035	-0.0007626464226014544	0.2709833978088313	-3.912742028236572	-43.52807837852406	-8.567884494010876	2.490613252621275	-3.467972688932056	-671.3803278547435	60.59377951409495	0.515161993633578	0.6229687595533929	0.004363583586105855	-2.120293667638609	-0.1582380864015961	-0.3839759460068251	2.054983874283461	-2.2456912864557	-2.245691286455686	0.7169524365530562	-0.030268729374137	-0.8482074884423091	-0.4910681918646693	-2.149083435707938e-08	1.321037409949593e-07	1.406846464867724e-06	6.356158474530693e-07	-2.188343351886337e-07	-6.531958533951648e-08	1.117207093357193e-06
